<svg width="18" height="14" viewBox="0 0 18 14" fill="none" xmlns="http://www.w3.org/2000/svg">
<path d="M17.7549 6.40813L12.3984 1.05163C12.0716 0.724815 11.5415 0.724815 11.2147 1.05163C10.8878 1.37851 10.8878 1.9084 11.2147 2.23528L15.1424 6.16301H0.836954C0.374754 6.16301 0 6.53776 0 6.99996C0 7.46209 0.374754 7.83691 0.836954 7.83691H15.1424L11.2148 11.7646C10.888 12.0915 10.888 12.6214 11.2148 12.9483C11.3782 13.1116 11.5925 13.1934 11.8067 13.1934C12.0209 13.1934 12.2351 13.1116 12.3985 12.9483L17.7549 7.59179C18.0818 7.26491 18.0818 6.73501 17.7549 6.40813Z" fill="#5F5F5F"/>
</svg>
