<svg width="18" height="14" viewBox="0 0 18 14" fill="none" xmlns="http://www.w3.org/2000/svg">
<path d="M0.245129 6.40813L5.60163 1.05163C5.92845 0.724815 6.45847 0.724815 6.78529 1.05163C7.11217 1.37851 7.11217 1.9084 6.78529 2.23528L2.85756 6.16301H17.163C17.6252 6.16301 18 6.53776 18 6.99996C18 7.46209 17.6252 7.83691 17.163 7.83691H2.85756L6.78515 11.7646C7.11203 12.0915 7.11203 12.6214 6.78515 12.9483C6.62178 13.1116 6.40752 13.1934 6.19333 13.1934C5.97913 13.1934 5.76494 13.1116 5.6015 12.9483L0.245129 7.59179C-0.0817528 7.26491 -0.0817528 6.73501 0.245129 6.40813Z" fill="#5F5F5F"/>
</svg>
