<svg width="220" height="70" viewBox="0 0 220 70" fill="none" xmlns="http://www.w3.org/2000/svg">
<path fill-rule="evenodd" clip-rule="evenodd" d="M4.76568 68.2496V1.73541H1.26493C0.864845 1.48535 0.664803 1.33532 0.664803 1.13528C0.664803 0.985245 0.864845 0.785201 1.26493 0.585158H16.9183C21.7193 0.585158 25.6701 2.03547 28.7208 4.88608C31.7715 7.7867 33.3218 11.7876 33.3218 16.9887C33.3218 20.1393 32.7717 22.8899 31.7214 25.1904C30.6712 27.4909 29.0709 29.4413 26.8704 30.9917C25.4701 31.9919 23.4197 32.8921 20.6191 33.7923C23.5197 34.6925 25.6701 35.6427 27.0204 36.5929C29.2209 38.1432 30.8713 40.0436 32.0215 42.2441C33.1718 44.4445 33.7219 47.1951 33.7219 50.3958C33.7219 54.5967 32.8717 58.2975 31.2213 61.5482C30.0711 63.7987 28.2207 65.6991 25.6201 67.1994C23.0196 68.6997 19.9189 69.4499 16.3181 69.4499H1.26493C0.864845 69.2498 0.664803 69.0498 0.664803 68.8498C0.664803 68.6497 0.864845 68.4497 1.26493 68.2496H4.76568ZM15.718 1.73541V33.2421H18.5186C19.8189 33.2421 20.7691 32.9421 21.3692 32.392C21.9694 31.8418 22.2694 30.9416 22.2694 29.6414V5.73626C22.2694 4.18593 21.9694 3.08569 21.3192 2.53558C20.6691 1.98546 19.4188 1.68539 17.6184 1.68539H15.718V1.73541ZM15.718 34.4424V68.2996H17.4184C18.9187 68.2996 20.069 67.8996 20.9691 67.1994C21.8693 66.4492 22.2694 65.449 22.2694 64.1988V37.5931C22.2694 36.4428 22.0194 35.6427 21.5193 35.1926C21.0192 34.6925 20.219 34.4424 19.1187 34.4424H15.718ZM39.5231 21.4896H37.4727C37.2726 21.4896 37.0726 21.4396 36.9726 21.3396C36.8225 21.2396 36.7725 21.0895 36.7725 20.9395C36.7725 20.7395 36.8225 20.5894 36.9726 20.4894C37.1226 20.3894 37.2726 20.3394 37.4727 20.3394H49.0251V68.2996H51.3256C51.5257 68.2996 51.7257 68.3496 51.8257 68.4497C51.9258 68.5497 52.0258 68.6997 52.0258 68.9498C52.0258 69.0998 51.9758 69.2498 51.8257 69.3499C51.6757 69.4499 51.5257 69.4999 51.3256 69.4999H37.4727C37.1226 69.2998 36.9226 69.0998 36.9226 68.8998C36.9226 68.6997 37.1226 68.4997 37.4727 68.2996H39.5231V21.4896ZM55.9766 48.2453V39.2434C55.9766 32.0919 57.3769 26.7908 60.1775 23.44C62.228 20.9395 64.8785 19.7393 68.0292 19.7393C72.0301 19.7393 75.0807 21.5396 77.2312 25.1904C79.3816 28.8412 80.4319 33.6422 80.4319 39.6435V49.5956C80.4319 57.3973 79.0316 62.9485 76.281 66.3492C74.2805 68.7998 71.68 70 68.3793 70C66.4789 70 64.7285 69.5999 63.1782 68.6997C61.5778 67.8495 60.1775 66.2992 58.8773 64.0487C57.627 61.8483 56.7768 58.8476 56.4767 55.1468C56.1267 51.5461 55.9766 49.1956 55.9766 48.2453ZM70.9298 25.6905C70.9298 23.9902 70.6298 22.7899 70.0796 22.0898C69.4795 21.3896 68.8294 21.0395 68.0292 21.0395C67.3791 21.0395 66.7289 21.3396 66.2288 21.8897C65.6787 22.4398 65.4286 23.29 65.4286 24.4903V62.9485C65.4286 65.349 65.7787 66.9994 66.3789 67.8495C66.879 68.4997 67.5291 68.7497 68.3793 68.7497C69.1795 68.7497 69.8296 68.4997 70.2797 67.9496C70.7298 67.3994 70.9298 66.2492 70.9298 64.4988V25.6905ZM87.0333 68.1996V1.68539H83.6826C83.4325 1.68539 83.2325 1.63538 83.1324 1.53536C82.9824 1.43534 82.9324 1.28531 82.9324 1.08526C82.9324 0.935233 82.9824 0.785201 83.1324 0.68518C83.2825 0.585158 83.4325 0.535148 83.6826 0.535148H97.4355C101.636 0.535148 105.087 1.33532 107.738 2.98567C110.388 4.63603 112.339 7.28659 113.589 10.8874C115.239 15.7384 116.039 20.8895 116.039 26.3907V43.3943C116.039 49.0955 115.239 54.2466 113.639 58.8476C112.739 61.4482 111.539 63.4986 110.138 64.8989C108.738 66.3492 106.988 67.4495 104.987 68.1996C102.937 68.9498 100.436 69.3499 97.4355 69.3499H83.6826C83.4325 69.3499 83.2325 69.2998 83.1324 69.1998C82.9824 69.0998 82.9324 68.9498 82.9324 68.7497C82.9324 68.5497 82.9824 68.3496 83.1324 68.2496C83.2825 68.1496 83.4325 68.0996 83.6826 68.0996H87.0333V68.1996ZM98.0356 68.1996H99.2359C101.436 68.1996 102.837 67.8495 103.487 67.1994C104.137 66.5493 104.487 64.8489 104.487 62.1483V6.78648C104.487 4.78606 104.137 3.43577 103.487 2.73562C102.837 2.03547 101.836 1.68539 100.486 1.68539H97.9856V68.1996H98.0356ZM129.292 45.0447V62.0983C129.292 64.7489 129.642 66.4993 130.343 67.3494C130.893 67.9996 131.743 68.2996 132.943 68.2996C134.944 68.2996 136.694 67.3494 138.244 65.399C140.795 62.1483 142.195 57.7474 142.395 52.1462C142.445 50.2958 142.545 49.2956 142.695 49.0455C142.845 48.7955 143.095 48.6954 143.345 48.6954C143.595 48.6954 143.795 48.7955 143.945 48.9455C144.145 49.1956 144.195 49.7957 144.195 50.6959C144.195 56.097 143.095 60.698 140.895 64.3988C138.694 68.0996 135.694 69.95 131.943 69.95C128.442 69.95 125.542 68.5497 123.241 65.6491C120.941 62.7985 119.79 56.5971 119.79 47.0951V40.3937C119.79 33.0921 121.341 27.5409 124.491 23.7401C126.742 21.0395 129.392 19.6892 132.543 19.6892C136.294 19.6892 139.194 21.4396 141.245 24.8403C143.295 28.2911 144.296 32.492 144.296 37.443V44.9446H129.292V45.0447ZM134.793 43.7944V24.2902C134.793 23.04 134.543 22.0898 133.943 21.4396C133.543 20.9895 132.993 20.7395 132.193 20.7395C131.393 20.7395 130.743 21.0395 130.142 21.5896C129.542 22.1898 129.292 23.04 129.292 24.2402V43.7444H134.793V43.7944ZM150.447 21.4896H148.196C147.996 21.4896 147.796 21.4396 147.696 21.3396C147.546 21.2396 147.496 21.0895 147.496 20.9395C147.496 20.7395 147.546 20.5894 147.696 20.4894C147.846 20.3894 147.996 20.3394 148.196 20.3394H159.799V26.3907C160.999 23.6401 162.099 21.8397 163.15 21.0395C164.2 20.2394 165.3 19.7893 166.45 19.7893C168.051 19.7893 169.501 20.4894 170.751 21.8397C172.402 23.5901 173.202 25.8406 173.202 28.5411C173.202 30.8416 172.652 32.542 171.551 33.7422C170.501 34.9425 169.301 35.4926 168.001 35.4926C166.95 35.4926 166.05 35.0925 165.35 34.2924C164.4 33.2421 163.9 31.6918 163.9 29.6914C163.9 27.741 164.55 25.8406 165.9 24.0402C166.6 23.14 166.9 22.4898 166.9 22.1398C166.9 21.8397 166.75 21.6397 166.55 21.4396C166.3 21.2396 166 21.1396 165.65 21.1396C165 21.1396 164.35 21.4396 163.75 21.9897C162.749 22.8899 161.799 24.5403 160.999 26.9408C160.199 29.3413 159.799 32.0419 159.799 35.0925V68.1996H162.499C162.749 68.1996 162.95 68.2496 163.1 68.3997C163.25 68.4997 163.3 68.6497 163.3 68.7997L163.15 69.1998C162.95 69.3499 162.749 69.3999 162.499 69.3999H148.196C147.996 69.3999 147.846 69.3499 147.746 69.2498C147.596 69.1498 147.546 68.9998 147.546 68.7997C147.546 68.5997 147.596 68.4497 147.746 68.3497C147.896 68.2496 147.996 68.1996 148.196 68.1996H150.447V21.4896ZM187.055 68.2496L188.305 68.3497C188.505 68.4497 188.555 68.5997 188.555 68.8498C188.555 69.0498 188.355 69.2498 188.005 69.4499H175.402C175.052 69.2498 174.902 69.0498 174.902 68.8498C174.902 68.6497 175.102 68.4497 175.402 68.2496H177.453V21.4896H175.402C175.052 21.2896 174.902 21.0895 174.902 20.9395C174.902 20.7395 175.102 20.5394 175.402 20.2894H187.005V23.9402C188.255 22.2898 189.455 21.1896 190.505 20.5894C191.556 19.9893 192.956 19.6892 194.706 19.6892C196.657 19.6892 198.157 20.0393 199.107 20.7395C200.107 21.4396 200.958 22.7399 201.658 24.6403C202.808 22.7399 203.908 21.4396 204.958 20.7395C206.009 20.0893 207.459 19.7393 209.309 19.7393C211.81 19.7393 213.66 20.2394 214.861 21.2896C216.061 22.3398 216.661 23.7901 216.661 25.6905V68.2996H218.411C218.611 68.2996 218.811 68.3496 218.961 68.4497C219.112 68.5497 219.162 68.6997 219.162 68.8998L219.011 69.2998C218.861 69.4499 218.661 69.4999 218.411 69.4999H206.059C205.709 69.2998 205.509 69.0998 205.509 68.8998C205.509 68.6997 205.709 68.4997 206.059 68.2996H207.209V23.9902C207.209 23.4901 207.059 23.04 206.759 22.7399C206.459 22.4398 206.109 22.2898 205.759 22.2898C204.958 22.2898 204.208 22.7899 203.458 23.7901C202.258 25.4405 201.658 27.691 201.658 30.5916V68.2996H202.858L203.158 68.4497C203.258 68.5497 203.308 68.6997 203.308 68.8998C203.308 69.0998 203.158 69.2998 202.858 69.4999H190.905C190.605 69.2998 190.455 69.0998 190.455 68.8998C190.455 68.6997 190.605 68.4997 190.905 68.2996H192.356V24.6903C192.356 23.8401 192.206 23.29 191.856 22.9399C191.556 22.5899 191.156 22.3898 190.755 22.3898C190.055 22.3898 189.405 22.7899 188.755 23.5401C187.555 25.1404 186.955 26.8408 186.955 28.7412V68.2496H187.055Z" fill="#2C2C2B"/>
<path fill-rule="evenodd" clip-rule="evenodd" d="M4.76566 49.6957L15.668 49.7457V56.8472L4.76566 56.7972V49.6957ZM22.2694 49.7457L33.7218 49.7957C33.8219 52.9964 33.4718 55.3469 32.9717 56.8972L22.2694 56.8472V49.7457ZM39.5231 49.8457L48.9751 49.8957V56.9972L39.5231 56.9472V49.8457ZM56.0266 49.8457L65.4286 49.8957V57.0473L56.6768 56.9972C56.2767 54.3967 56.1266 52.2962 56.0266 49.8457ZM70.9298 49.8957L80.4318 49.9457C80.3818 52.3963 80.3818 54.0466 79.9317 57.0973L70.9798 57.0473V49.8957H70.9298ZM87.0332 49.9457L98.0356 49.9957V57.1473L87.0332 57.0973V49.9457ZM104.487 49.9957L115.639 50.0458C115.339 52.5963 114.989 54.7468 114.189 57.1973L104.487 57.1473V49.9957ZM119.79 50.0458L129.292 50.0958V57.2473L120.34 57.1973C119.94 54.4467 119.89 52.4463 119.79 50.0458ZM142.495 50.1458H144.195C144.295 52.5463 144.095 54.8968 143.595 57.2973H141.845C142.345 54.7968 142.295 51.7461 142.495 50.1458ZM150.447 50.1458L159.799 50.1958V57.3473L150.447 57.2973V50.1458ZM177.503 50.2458L187.005 50.2958V57.4473L177.503 57.3973V50.2458ZM192.406 50.2958L201.758 50.3458V57.4973L192.406 57.4473V50.2958ZM207.259 50.3458L216.711 50.3958V57.5474L207.259 57.4973V50.3458Z" fill="#009240"/>
<path fill-rule="evenodd" clip-rule="evenodd" d="M44.3742 18.2889H41.8736C42.7238 17.2887 42.4737 15.3883 41.0234 14.5381C39.8232 13.938 38.4729 12.8378 38.0728 12.0876C37.6227 11.4375 37.6227 10.4373 38.2728 10.2872C37.6227 9.68709 37.2226 8.43683 38.2728 8.13676C37.7727 6.98652 37.8228 5.4862 39.2231 5.13612C39.5231 3.68581 40.1232 2.6856 41.2735 2.88564C41.8736 1.83541 42.8738 1.2853 43.3739 1.93543C43.9241 1.08525 44.5242 0.585146 45.0243 1.03524C45.7244 0.535135 46.4746 -0.165014 47.4248 0.0350283C47.9749 0.735178 47.9249 1.48534 48.0249 2.2355C48.9251 2.28551 48.7751 3.13569 48.5751 3.83584C49.1252 3.98587 49.4752 4.38596 48.8751 5.58622C49.4252 5.78626 49.5753 6.33638 49.0251 7.43661C49.7753 7.88671 49.1752 8.73689 48.0249 9.7371C48.6251 10.2372 48.275 11.3875 45.7244 12.0876C46.3246 12.7377 45.7745 12.9378 44.9243 13.3379C43.3739 14.1881 42.8738 15.9384 43.1739 16.6886C43.474 17.6888 43.9241 17.9889 44.3742 18.2889Z" fill="#009240"/>
</svg>
