<svg width="239" height="94" viewBox="0 0 239 94" fill="none" xmlns="http://www.w3.org/2000/svg">
<path fill-rule="evenodd" clip-rule="evenodd" d="M0.819201 2.35064H0.327206C0.27254 2.35064 0.217874 2.29597 0.217874 2.29597C0.217874 2.29597 0.27254 2.24131 0.327206 2.24131H2.78718V2.67864C3.00584 2.45997 3.22451 2.35064 3.38851 2.29597C3.5525 2.18664 3.77117 2.18664 4.0445 2.18664C4.59116 2.18664 5.02849 2.29597 5.41115 2.5693C6.01248 3.00663 6.34047 3.71729 6.34047 4.81061C6.34047 5.90393 6.12181 6.61459 5.73915 7.05192C5.35648 7.48925 4.80982 7.70791 4.09916 7.70791C3.8805 7.70791 3.66184 7.70791 3.49784 7.65325C3.33384 7.59858 3.16984 7.48925 2.95118 7.37992V9.45723H3.5525C3.60717 9.45723 3.66184 9.45723 3.7165 9.45723C3.77117 9.45723 3.77117 9.45723 3.77117 9.51189L3.7165 9.56656C3.66184 9.56656 3.60717 9.56656 3.5525 9.56656H0.327206C0.27254 9.56656 0.27254 9.56656 0.217874 9.56656L0.163208 9.51189C0.163208 9.51189 0.163208 9.45723 0.217874 9.45723C0.217874 9.45723 0.27254 9.45723 0.327206 9.45723H0.764535V2.35064H0.819201ZM2.89651 6.72393C2.89651 6.99726 3.00584 7.21592 3.16984 7.32525C3.27917 7.43458 3.44317 7.43458 3.60717 7.43458C3.7165 7.43458 3.82583 7.43458 3.93517 7.37992C4.0445 7.32525 4.09916 7.21592 4.09916 7.05192V2.7333C4.09916 2.62397 4.0445 2.51464 3.98983 2.45997C3.93517 2.40531 3.82583 2.40531 3.7165 2.40531C3.5525 2.40531 3.38851 2.45997 3.22451 2.51464C3.00584 2.67864 2.89651 2.84263 2.89651 3.11597V6.72393ZM12.7364 4.97461V6.83326C12.7364 7.10659 12.7911 7.32525 12.9551 7.43458C13.0644 7.48925 13.2831 7.54392 13.5564 7.54392C13.9937 7.54392 14.3764 7.43458 14.759 7.21592C15.3057 6.83326 15.6337 6.39593 15.6884 5.73994C15.6884 5.52127 15.743 5.41194 15.743 5.41194C15.7977 5.41194 15.8524 5.35727 15.907 5.35727C15.9617 5.35727 16.0164 5.35727 16.0164 5.41194C16.071 5.46661 16.071 5.52127 16.071 5.6306C16.071 6.23193 15.7977 6.72393 15.3057 7.16125C14.8137 7.59858 14.1577 7.76258 13.2831 7.76258C12.5177 7.76258 11.8617 7.59858 11.3151 7.27059C10.8231 6.94259 10.5498 6.2866 10.5498 5.19328V4.48262C10.5498 3.66263 10.8778 3.0613 11.5884 2.62397C12.0804 2.35064 12.6817 2.18664 13.3924 2.18664C14.2124 2.18664 14.8684 2.40531 15.3604 2.7333C15.7977 3.11597 16.071 3.55329 16.071 4.09995V4.91995H12.7364V4.97461ZM13.9937 4.81061V2.67864C13.9937 2.51464 13.9391 2.45997 13.8297 2.35064C13.7204 2.29597 13.6111 2.29597 13.4471 2.29597C13.2831 2.29597 13.1191 2.35064 13.0097 2.40531C12.9004 2.45997 12.7911 2.5693 12.7911 2.67864V4.81061H13.9937ZM20.8816 2.35064H20.3897C20.335 2.35064 20.2803 2.35064 20.2803 2.35064C20.2257 2.35064 20.2257 2.35064 20.2257 2.29597C20.2257 2.29597 20.2257 2.24131 20.2803 2.24131C20.335 2.24131 20.335 2.24131 20.3897 2.24131H22.959V2.8973C23.2323 2.5693 23.5056 2.40531 23.7243 2.29597C23.9976 2.24131 24.2163 2.18664 24.4896 2.18664C24.8723 2.18664 25.1456 2.24131 25.4736 2.40531C25.8563 2.62397 26.0203 2.84264 26.0203 3.17063C26.0203 3.44396 25.9109 3.60796 25.6376 3.77196C25.3643 3.82662 25.1456 3.93596 24.8176 3.93596C24.5989 3.93596 24.3803 3.88129 24.2163 3.82662C23.9976 3.71729 23.8883 3.55329 23.8883 3.33463C23.8883 3.11597 24.0523 2.8973 24.3256 2.7333C24.5443 2.5693 24.5989 2.45997 24.5989 2.45997C24.5989 2.40531 24.5989 2.40531 24.5443 2.40531C24.4896 2.40531 24.4349 2.35064 24.3256 2.35064C24.1616 2.35064 24.0523 2.40531 23.8883 2.45997C23.6696 2.5693 23.4509 2.7333 23.287 3.00663C23.123 3.27996 23.0136 3.55329 23.0136 3.93596V7.59858H23.6149C23.6696 7.59858 23.7243 7.59858 23.7243 7.59858C23.7789 7.59858 23.7789 7.65325 23.7789 7.65325H23.7243C23.6696 7.65325 23.6149 7.65325 23.5603 7.65325H20.3897C20.335 7.65325 20.335 7.65325 20.2803 7.65325C20.2257 7.65325 20.2257 7.65325 20.2257 7.59858C20.2257 7.59858 20.2257 7.54392 20.2803 7.54392C20.335 7.54392 20.335 7.54392 20.3897 7.54392H20.8816V2.35064ZM32.4709 7.54392H32.7442C32.7988 7.54392 32.7988 7.59858 32.7988 7.59858C32.7988 7.59858 32.7442 7.65325 32.6895 7.65325H29.9015C29.8469 7.65325 29.7922 7.59858 29.7922 7.59858C29.7922 7.59858 29.8469 7.54392 29.9015 7.54392H30.3389V2.35064H29.9015C29.8469 2.35064 29.7922 2.29597 29.7922 2.29597C29.7922 2.29597 29.8469 2.24131 29.9015 2.24131H32.4709V2.62397C32.7442 2.45997 33.0175 2.29597 33.2362 2.24131C33.5095 2.18664 33.8375 2.18664 34.2202 2.18664C34.6575 2.18664 34.9855 2.24131 35.2042 2.29597C35.4228 2.35064 35.6415 2.51464 35.8055 2.7333C36.0788 2.51464 36.2975 2.35064 36.5161 2.29597C36.7348 2.24131 37.0628 2.18664 37.5001 2.18664C38.0468 2.18664 38.4841 2.24131 38.7574 2.35064C39.0308 2.45997 39.1401 2.62397 39.1401 2.84263V7.54392H39.5228C39.5774 7.54392 39.6321 7.54392 39.6321 7.54392C39.6868 7.54392 39.6868 7.59858 39.6868 7.59858L39.6321 7.65325C39.5774 7.65325 39.5774 7.65325 39.5228 7.65325H36.7895C36.7348 7.65325 36.6801 7.59858 36.6801 7.59858C36.6801 7.59858 36.7348 7.54392 36.7895 7.54392H37.0628V2.62397C37.0628 2.5693 37.0081 2.51464 36.9535 2.45997C36.8988 2.40531 36.7895 2.40531 36.7348 2.40531C36.5708 2.40531 36.4068 2.45997 36.2428 2.5693C35.9695 2.7333 35.8601 3.00663 35.8601 3.33463V7.48925H36.1335H36.1881L36.2428 7.54392C36.2428 7.54392 36.1881 7.59858 36.1335 7.59858H33.4548C33.4002 7.59858 33.3455 7.54392 33.3455 7.54392C33.3455 7.54392 33.4002 7.48925 33.4548 7.48925H33.7828V2.7333C33.7828 2.62397 33.7282 2.5693 33.6735 2.51464C33.6188 2.45997 33.5095 2.45997 33.4002 2.45997C33.2362 2.45997 33.0722 2.51464 32.9628 2.5693C32.6895 2.7333 32.5802 2.95197 32.5802 3.17063V7.54392H32.4709ZM44.552 2.78797C44.6614 2.7333 44.7707 2.7333 44.88 2.7333C44.9894 2.7333 45.0987 2.7333 45.1534 2.7333C45.4814 2.7333 45.7547 2.78797 45.9734 2.8973C46.192 3.00663 46.3014 3.11597 46.3014 3.27996C46.3014 3.44396 46.192 3.55329 45.9734 3.66263C45.7547 3.77196 45.4814 3.82662 45.0987 3.82662C44.716 3.82662 44.4427 3.77196 44.2241 3.66263C44.0054 3.55329 43.8961 3.44396 43.8961 3.2253C43.8961 2.95197 44.1694 2.67864 44.6614 2.51464C45.1534 2.29597 45.9187 2.24131 46.848 2.24131C47.7227 2.24131 48.324 2.29597 48.7067 2.45997C49.0893 2.62397 49.2533 2.78797 49.2533 3.00663V7.37992C49.2533 7.43458 49.308 7.48925 49.3627 7.48925C49.4173 7.54392 49.472 7.54392 49.5813 7.54392C49.8 7.54392 49.964 7.43458 50.1827 7.27059C50.1827 7.10659 50.2373 7.10659 50.292 7.10659L50.456 7.16125C50.456 7.27059 50.292 7.37992 49.9093 7.54392C49.5267 7.65325 49.144 7.76258 48.652 7.76258C48.2147 7.76258 47.8867 7.70791 47.668 7.65325C47.4493 7.54392 47.2307 7.43458 47.1213 7.21592C46.7387 7.43458 46.4107 7.59858 46.1374 7.65325C45.864 7.70791 45.536 7.76258 45.1534 7.76258C44.716 7.76258 44.3334 7.70791 44.1147 7.59858C43.8961 7.48925 43.7321 7.37992 43.7321 7.21592V5.30261C43.7321 5.08394 43.8414 4.91995 44.0601 4.86528C44.2787 4.75595 44.88 4.64662 45.9187 4.48262C46.356 4.42795 46.7387 4.31862 47.0667 4.26395V2.78797C47.0667 2.62397 46.9574 2.51464 46.7934 2.45997C46.6294 2.35064 46.356 2.35064 46.0827 2.35064C45.4267 2.29597 44.88 2.45997 44.552 2.78797ZM47.1213 4.42795C46.6294 4.53728 46.3014 4.59195 46.1374 4.70128C45.9734 4.75595 45.9187 4.86528 45.9187 5.08394V7.21592C45.9187 7.27059 45.9734 7.32525 46.028 7.37992C46.0827 7.43458 46.1374 7.43458 46.2467 7.43458C46.356 7.43458 46.52 7.37992 46.684 7.27059C47.012 7.05192 47.176 6.77859 47.176 6.50526V4.42795H47.1213ZM54.5559 2.35064H54.0639H54.0093L53.9546 2.29597C53.9546 2.29597 54.0093 2.24131 54.0639 2.24131H56.6879V2.67864C56.9612 2.51464 57.2346 2.35064 57.5079 2.29597C57.7812 2.24131 58.1092 2.18664 58.4919 2.18664C58.9839 2.18664 59.3666 2.24131 59.5852 2.35064C59.9132 2.51464 60.0225 2.7333 60.0225 3.00663V7.54392H60.4052C60.4599 7.54392 60.5145 7.54392 60.5145 7.54392C60.5692 7.54392 60.5692 7.59858 60.5692 7.59858C60.5692 7.59858 60.5692 7.65325 60.5145 7.65325C60.5145 7.65325 60.4599 7.65325 60.4052 7.65325H57.6719C57.6172 7.65325 57.6172 7.65325 57.5626 7.65325C57.5079 7.65325 57.5079 7.65325 57.5079 7.59858C57.5079 7.59858 57.5079 7.54392 57.5626 7.54392C57.6172 7.54392 57.6172 7.54392 57.6719 7.54392H57.8906V2.78797C57.8906 2.67864 57.8359 2.62397 57.7812 2.5693C57.7266 2.51464 57.6172 2.51464 57.5079 2.51464C57.2892 2.51464 57.1252 2.5693 56.9612 2.67864C56.7426 2.84264 56.6332 3.0613 56.6332 3.3893V7.54392H56.9066C56.9612 7.54392 57.0159 7.59858 57.0159 7.59858C57.0159 7.59858 56.9612 7.65325 56.9066 7.65325H54.0093C53.9546 7.65325 53.8999 7.59858 53.8999 7.59858C53.8999 7.59858 53.9546 7.54392 54.0093 7.54392H54.5013V2.35064H54.5559ZM66.8011 4.97461V6.83326C66.8011 7.10659 66.8558 7.32525 67.0198 7.43458C67.1291 7.48925 67.3478 7.54392 67.6211 7.54392C68.0584 7.54392 68.4411 7.43458 68.8238 7.21592C69.4251 6.83326 69.6984 6.39593 69.7531 5.73994C69.7531 5.52127 69.8078 5.41194 69.8078 5.41194C69.8624 5.41194 69.9171 5.35727 69.9718 5.35727C70.0264 5.35727 70.0811 5.35727 70.0811 5.41194C70.1358 5.46661 70.1358 5.52127 70.1358 5.6306C70.1358 6.23193 69.9171 6.72393 69.3704 7.16125C68.8784 7.59858 68.2225 7.76258 67.3478 7.76258C66.5825 7.76258 65.9265 7.59858 65.3798 7.27059C64.8878 6.94259 64.6145 6.2866 64.6145 5.19328V4.48262C64.6145 3.66263 64.9425 3.0613 65.6531 2.62397C66.1451 2.35064 66.7465 2.18664 67.4571 2.18664C68.2771 2.18664 68.9331 2.40531 69.3704 2.7333C69.8078 3.11597 70.0811 3.55329 70.0811 4.09995V4.91995H66.8011V4.97461ZM68.0038 4.81061V2.67864C68.0038 2.51464 67.9491 2.45997 67.8398 2.35064C67.7305 2.29597 67.6211 2.29597 67.4571 2.29597C67.2931 2.29597 67.1291 2.35064 67.0198 2.40531C66.9105 2.45997 66.8011 2.5693 66.8011 2.67864V4.81061H68.0038ZM74.8917 2.35064H74.3997H74.345L74.2904 2.29597C74.2904 2.29597 74.3451 2.24131 74.3997 2.24131H77.0237V2.67864C77.297 2.51464 77.5703 2.35064 77.8437 2.29597C78.117 2.24131 78.445 2.18664 78.8277 2.18664C79.3197 2.18664 79.7023 2.24131 79.921 2.35064C80.249 2.51464 80.3583 2.7333 80.3583 3.00663V7.54392H80.741C80.7956 7.54392 80.8503 7.54392 80.8503 7.54392C80.905 7.54392 80.905 7.59858 80.905 7.59858C80.905 7.59858 80.905 7.65325 80.8503 7.65325C80.8503 7.65325 80.7956 7.65325 80.741 7.65325H78.0077C77.953 7.65325 77.953 7.65325 77.8983 7.65325C77.8437 7.65325 77.8437 7.65325 77.8437 7.59858C77.8437 7.59858 77.8437 7.54392 77.8983 7.54392C77.953 7.54392 77.953 7.54392 78.0077 7.54392H78.2263V2.78797C78.2263 2.67864 78.1717 2.62397 78.117 2.5693C78.0623 2.51464 77.953 2.51464 77.8437 2.51464C77.625 2.51464 77.461 2.5693 77.297 2.67864C77.0783 2.84264 76.969 3.0613 76.969 3.3893V7.54392H77.2424C77.297 7.54392 77.3517 7.59858 77.3517 7.59858C77.3517 7.59858 77.297 7.65325 77.2424 7.65325H74.345C74.2904 7.65325 74.2357 7.59858 74.2357 7.59858C74.2357 7.59858 74.2904 7.54392 74.345 7.54392H74.837V2.35064H74.8917ZM85.7156 2.35064H85.1689C85.1143 2.35064 85.0596 2.35064 85.0049 2.35064C84.9503 2.35064 84.9503 2.29597 84.9503 2.29597C84.9503 2.29597 85.0049 2.24131 85.0596 2.24131C85.7156 2.02264 86.2076 1.80398 86.4809 1.58532C86.7542 1.36665 87.0276 1.09332 87.2462 0.819991C87.4102 0.601327 87.5196 0.491995 87.5196 0.382662V0.163998C87.5196 0.163998 87.5742 0.163998 87.6289 0.163998C87.6836 0.163998 87.7382 0.163998 87.7382 0.163998C87.7929 0.163998 87.7929 0.163998 87.7929 0.218664V2.29597H89.5422C89.5969 2.29597 89.6516 2.29597 89.7062 2.29597C89.7609 2.29597 89.7609 2.35064 89.7609 2.35064C89.7609 2.35064 89.7609 2.40531 89.7062 2.40531C89.6516 2.40531 89.5969 2.40531 89.5422 2.40531H87.7929V7.10659C87.7929 7.27059 87.8476 7.32525 87.9569 7.37992C88.0116 7.43458 88.1209 7.43458 88.2302 7.43458C88.5036 7.43458 88.7222 7.37992 88.9409 7.21592C89.2689 6.99726 89.4329 6.72393 89.4329 6.34126V5.6306C89.4329 5.57594 89.4329 5.52127 89.4875 5.52127C89.5422 5.52127 89.5422 5.52127 89.5969 5.52127C89.6515 5.52127 89.7062 5.52127 89.7062 5.52127C89.7609 5.57594 89.7609 5.57594 89.7609 5.6306V6.17726C89.7609 6.72393 89.5422 7.16125 89.1049 7.37992C88.6676 7.59858 88.1756 7.70791 87.5196 7.70791C86.9182 7.70791 86.4809 7.65325 86.2076 7.48925C85.8249 7.32525 85.6609 7.05192 85.6609 6.72393V2.35064H85.7156ZM103.263 7.54392H103.537C103.591 7.54392 103.591 7.59858 103.591 7.59858C103.591 7.59858 103.537 7.65325 103.482 7.65325H100.694C100.639 7.65325 100.585 7.59858 100.585 7.59858C100.585 7.59858 100.639 7.54392 100.694 7.54392H101.131V2.35064H100.694C100.639 2.35064 100.585 2.29597 100.585 2.29597C100.585 2.29597 100.639 2.24131 100.694 2.24131H103.263V2.62397C103.537 2.45997 103.81 2.29597 104.029 2.24131C104.247 2.18664 104.575 2.13198 104.958 2.13198C105.395 2.13198 105.723 2.18664 105.942 2.24131C106.161 2.29597 106.379 2.45997 106.543 2.67864C106.817 2.45997 107.035 2.29597 107.254 2.24131C107.473 2.18664 107.801 2.13198 108.238 2.13198C108.785 2.13198 109.222 2.18664 109.495 2.29597C109.769 2.40531 109.878 2.5693 109.878 2.78797V7.48925H110.261C110.315 7.48925 110.37 7.48925 110.37 7.48925C110.425 7.48925 110.425 7.54392 110.425 7.54392V7.65325C110.37 7.65325 110.37 7.65325 110.315 7.65325H107.582C107.527 7.65325 107.473 7.59858 107.473 7.59858C107.473 7.59858 107.527 7.54392 107.582 7.54392H107.855V2.62397C107.855 2.5693 107.801 2.51464 107.746 2.45997C107.691 2.40531 107.582 2.40531 107.527 2.40531C107.363 2.40531 107.199 2.45997 107.035 2.5693C106.762 2.7333 106.653 3.00663 106.653 3.33463V7.48925H106.926H106.981L107.035 7.54392C107.035 7.54392 106.981 7.59858 106.926 7.59858H104.247C104.193 7.59858 104.138 7.54392 104.138 7.54392C104.138 7.54392 104.193 7.48925 104.247 7.48925H104.575V2.7333C104.575 2.62397 104.521 2.5693 104.466 2.51464C104.411 2.45997 104.302 2.45997 104.193 2.45997C104.029 2.45997 103.865 2.51464 103.755 2.5693C103.482 2.7333 103.373 2.95197 103.373 3.17063V7.54392H103.263ZM115.345 2.78797C115.454 2.78797 115.563 2.7333 115.673 2.7333C115.782 2.7333 115.891 2.7333 115.946 2.7333C116.274 2.7333 116.547 2.78797 116.766 2.8973C116.985 3.00663 117.094 3.11597 117.094 3.27996C117.094 3.44396 116.985 3.55329 116.766 3.66263C116.547 3.77196 116.274 3.82662 115.891 3.82662C115.509 3.82662 115.235 3.77196 115.017 3.66263C114.798 3.55329 114.689 3.44396 114.689 3.2253C114.689 2.95197 114.962 2.67864 115.454 2.51464C115.946 2.29597 116.711 2.24131 117.641 2.24131C118.515 2.24131 119.117 2.29597 119.499 2.45997C119.882 2.62397 120.046 2.78797 120.046 3.00663V7.37992C120.046 7.43458 120.101 7.48925 120.155 7.48925C120.21 7.54392 120.265 7.54392 120.374 7.54392C120.593 7.54392 120.757 7.43458 120.975 7.27059C121.03 7.21592 121.085 7.16125 121.139 7.16125L121.303 7.21592C121.303 7.32525 121.139 7.43458 120.757 7.59858C120.374 7.70791 119.991 7.81725 119.499 7.81725C119.062 7.81725 118.734 7.76258 118.515 7.70791C118.297 7.59858 118.078 7.48925 117.969 7.27059C117.586 7.48925 117.258 7.65325 117.039 7.70791C116.766 7.76258 116.438 7.81725 116.055 7.81725C115.618 7.81725 115.235 7.76258 115.017 7.65325C114.798 7.54392 114.634 7.43458 114.634 7.27059V5.30261C114.634 5.08394 114.743 4.91995 114.962 4.86528C115.181 4.75595 115.782 4.64662 116.821 4.48262C117.258 4.42795 117.641 4.31862 117.969 4.26395V2.78797C117.969 2.62397 117.859 2.51464 117.695 2.45997C117.531 2.35064 117.258 2.35064 116.985 2.35064C116.219 2.29597 115.673 2.45997 115.345 2.78797ZM117.914 4.42795C117.422 4.53728 117.094 4.59195 116.93 4.70128C116.766 4.81061 116.711 4.91995 116.711 5.08394V7.21592C116.711 7.27059 116.766 7.32525 116.821 7.37992C116.875 7.43458 116.93 7.43458 117.039 7.43458C117.149 7.43458 117.313 7.37992 117.477 7.27059C117.805 7.05192 117.969 6.77859 117.969 6.50526V4.42795H117.914ZM127.535 0.0546661V5.02928L129.886 2.95197C130.05 2.84264 130.104 2.7333 130.104 2.62397C130.104 2.5693 130.05 2.45997 129.94 2.45997C129.831 2.40531 129.722 2.35064 129.558 2.35064H129.12C129.066 2.35064 129.066 2.29597 129.066 2.29597C129.066 2.29597 129.066 2.24131 129.12 2.24131C129.12 2.24131 129.175 2.24131 129.23 2.24131H131.854C131.908 2.24131 131.963 2.24131 131.963 2.24131C132.018 2.24131 132.018 2.29597 132.018 2.29597C132.018 2.29597 132.018 2.35064 131.963 2.35064H131.58C131.471 2.35064 131.307 2.35064 131.198 2.40531C131.034 2.45997 130.87 2.51464 130.706 2.5693C130.596 2.62397 130.432 2.78797 130.159 3.0613L128.956 4.09995L131.526 7.54392H131.908C131.963 7.54392 132.018 7.54392 132.018 7.54392C132.072 7.54392 132.072 7.59858 132.072 7.59858L132.018 7.65325C131.963 7.65325 131.963 7.65325 131.908 7.65325H128.792C128.738 7.65325 128.683 7.65325 128.683 7.65325C128.628 7.65325 128.628 7.65325 128.628 7.59858C128.628 7.59858 128.628 7.54392 128.683 7.54392C128.738 7.54392 128.738 7.54392 128.792 7.54392H129.394L127.535 5.08394V7.54392H128.027C128.136 7.54392 128.136 7.59858 128.136 7.59858C128.136 7.59858 128.082 7.65325 128.027 7.65325H124.966C124.911 7.65325 124.856 7.65325 124.856 7.65325C124.802 7.65325 124.802 7.65325 124.802 7.59858C124.802 7.59858 124.802 7.54392 124.856 7.54392C124.911 7.54392 124.911 7.54392 124.966 7.54392H125.403V0.163998H124.966C124.911 0.163998 124.911 0.163998 124.856 0.163998C124.802 0.163998 124.802 0.163998 124.802 0.109332C124.802 0.109332 124.802 0.0546661 124.856 0.0546661C124.911 0.0546661 124.911 0.0546661 124.966 0.0546661H127.535ZM138.086 4.97461V6.83326C138.086 7.10659 138.14 7.32525 138.304 7.43458C138.414 7.48925 138.632 7.54392 138.906 7.54392C139.343 7.54392 139.726 7.43458 140.108 7.21592C140.71 6.83326 140.983 6.39593 141.038 5.73994C141.038 5.52127 141.092 5.41194 141.092 5.41194C141.147 5.41194 141.202 5.35727 141.256 5.35727C141.311 5.35727 141.366 5.35727 141.366 5.41194C141.42 5.46661 141.42 5.52127 141.42 5.6306C141.42 6.23193 141.147 6.72393 140.655 7.16125C140.163 7.59858 139.507 7.76258 138.632 7.76258C137.867 7.76258 137.211 7.59858 136.664 7.27059C136.172 6.94259 135.899 6.2866 135.899 5.19328V4.48262C135.899 3.66263 136.227 3.0613 136.938 2.62397C137.43 2.35064 138.031 2.18664 138.742 2.18664C139.562 2.18664 140.218 2.40531 140.71 2.7333C141.147 3.11597 141.366 3.55329 141.366 4.09995V4.91995H138.086V4.97461ZM139.343 4.81061V2.67864C139.343 2.51464 139.288 2.45997 139.179 2.35064C139.07 2.29597 138.96 2.29597 138.796 2.29597C138.632 2.29597 138.468 2.35064 138.359 2.40531C138.25 2.45997 138.14 2.5693 138.14 2.67864V4.81061H139.343ZM146.012 4.59195H149.019V5.30261H146.012V4.59195ZM153.83 2.35064H153.392C153.338 2.35064 153.283 2.29597 153.283 2.29597C153.283 2.29597 153.338 2.24131 153.392 2.24131H155.961V7.32525C155.961 7.37992 155.961 7.37992 156.016 7.43458C156.071 7.43458 156.125 7.48925 156.235 7.48925C156.399 7.48925 156.563 7.43458 156.781 7.32525C157.055 7.16125 157.219 6.94259 157.219 6.72393V2.35064H156.781C156.727 2.35064 156.727 2.35064 156.672 2.35064L156.617 2.29597C156.617 2.29597 156.617 2.24131 156.672 2.24131C156.672 2.24131 156.727 2.24131 156.781 2.24131H159.405V7.54392H159.788C159.843 7.54392 159.843 7.54392 159.897 7.54392C159.952 7.54392 159.952 7.59858 159.952 7.59858C159.952 7.59858 159.952 7.65325 159.897 7.65325C159.843 7.65325 159.843 7.65325 159.788 7.65325H157.273V7.27059C157 7.43458 156.781 7.54392 156.508 7.65325C156.235 7.70791 155.907 7.76258 155.579 7.76258C155.032 7.76258 154.649 7.70791 154.376 7.59858C154.103 7.48925 153.939 7.32525 153.939 7.10659V2.35064H153.83ZM164.435 2.35064H163.997C163.943 2.35064 163.888 2.29597 163.888 2.29597C163.888 2.29597 163.943 2.24131 163.997 2.24131H166.457V2.67864C166.676 2.45997 166.895 2.35064 167.059 2.29597C167.223 2.24131 167.441 2.18664 167.715 2.18664C168.261 2.18664 168.699 2.29597 169.081 2.5693C169.683 3.00663 170.011 3.71729 170.011 4.81061C170.011 5.90393 169.792 6.61459 169.409 7.05192C169.027 7.48925 168.48 7.70791 167.769 7.70791C167.551 7.70791 167.332 7.70791 167.168 7.65325C167.004 7.59858 166.84 7.48925 166.621 7.37992V9.45723H167.223C167.277 9.45723 167.332 9.45723 167.387 9.45723C167.441 9.45723 167.441 9.45723 167.441 9.51189L167.387 9.56656C167.332 9.56656 167.277 9.56656 167.223 9.56656H163.997C163.943 9.56656 163.943 9.56656 163.888 9.56656L163.833 9.51189C163.833 9.51189 163.833 9.45723 163.888 9.45723C163.888 9.45723 163.943 9.45723 163.997 9.45723H164.435V2.35064ZM166.567 6.72393C166.567 6.99726 166.676 7.21592 166.84 7.32525C166.949 7.43458 167.113 7.43458 167.277 7.43458C167.387 7.43458 167.496 7.43458 167.605 7.37992C167.715 7.32525 167.769 7.21592 167.769 7.05192V2.7333C167.769 2.62397 167.715 2.51464 167.66 2.45997C167.551 2.40531 167.496 2.40531 167.387 2.40531C167.223 2.40531 167.059 2.45997 166.895 2.51464C166.676 2.62397 166.567 2.84263 166.567 3.11597V6.72393ZM181.436 0.546661C181.436 0.382662 181.545 0.27333 181.819 0.163998C182.092 0.0546661 182.365 0 182.693 0C183.076 0 183.349 0.0546661 183.623 0.163998C183.841 0.27333 184.005 0.382662 184.005 0.546661C184.005 0.710659 183.896 0.819991 183.623 0.929323C183.404 1.03866 183.076 1.09332 182.748 1.09332C182.42 1.09332 182.092 1.03866 181.873 0.929323C181.545 0.819991 181.436 0.655993 181.436 0.546661ZM181.6 2.35064H181.163C181.108 2.35064 181.053 2.35064 181.053 2.35064C180.999 2.35064 180.999 2.35064 180.999 2.29597C180.999 2.29597 180.999 2.24131 181.053 2.24131C181.108 2.24131 181.108 2.24131 181.163 2.24131H183.732V7.54392H184.224C184.279 7.54392 184.333 7.54392 184.333 7.54392L184.388 7.59858C184.388 7.59858 184.388 7.65325 184.333 7.65325C184.279 7.65325 184.279 7.65325 184.224 7.65325H181.163C181.108 7.65325 181.053 7.59858 181.053 7.59858C181.053 7.59858 181.108 7.54392 181.163 7.54392H181.6V2.35064ZM189.581 7.32525C189.417 7.37992 189.253 7.48925 189.034 7.59858C188.87 7.70791 188.761 7.76258 188.706 7.76258C188.652 7.76258 188.652 7.76258 188.597 7.76258C188.597 7.76258 188.542 7.76258 188.542 7.70791V5.30261C188.542 5.30261 188.542 5.24794 188.597 5.24794C188.597 5.24794 188.652 5.24794 188.706 5.24794C188.761 5.24794 188.816 5.24794 188.816 5.24794C188.816 5.24794 188.87 5.30261 188.87 5.41194C188.98 6.06793 189.253 6.61459 189.636 7.05192C189.964 7.37992 190.292 7.54392 190.674 7.54392C190.893 7.54392 191.057 7.48925 191.221 7.43458C191.385 7.32525 191.494 7.21592 191.494 7.05192C191.494 6.88792 191.385 6.61459 191.221 6.39593C191.057 6.1226 190.62 5.68527 190.018 5.13861C189.417 4.59195 189.034 4.15462 188.87 3.93596C188.706 3.66263 188.597 3.44396 188.597 3.27996C188.597 2.95197 188.816 2.7333 189.198 2.51464C189.581 2.29597 190.073 2.24131 190.62 2.24131C191.112 2.24131 191.549 2.35064 191.986 2.51464C192.096 2.45997 192.26 2.40531 192.533 2.29597C192.642 2.24131 192.752 2.24131 192.806 2.24131C192.861 2.24131 192.861 2.24131 192.861 2.24131L192.916 2.29597V4.37328C192.916 4.37328 192.916 4.42795 192.861 4.42795C192.806 4.42795 192.806 4.42795 192.752 4.42795C192.697 4.42795 192.697 4.42795 192.642 4.42795C192.642 4.42795 192.588 4.37328 192.588 4.26395C192.478 3.66263 192.26 3.11597 191.932 2.7333C191.658 2.45997 191.385 2.35064 190.948 2.35064C190.729 2.35064 190.51 2.40531 190.401 2.45997C190.346 2.51464 190.237 2.62397 190.237 2.7333C190.237 3.0613 190.729 3.60796 191.658 4.37328C192.314 4.91995 192.697 5.30261 192.97 5.6306C193.189 5.9586 193.298 6.23193 193.298 6.4506C193.298 6.83326 193.08 7.10659 192.642 7.32525C192.205 7.54392 191.658 7.65325 191.112 7.65325C190.838 7.65325 190.565 7.59858 190.346 7.54392C190.073 7.59858 189.854 7.48925 189.581 7.32525ZM206.364 4.97461V6.83326C206.364 7.10659 206.418 7.32525 206.582 7.43458C206.692 7.48925 206.91 7.54392 207.184 7.54392C207.621 7.54392 208.004 7.43458 208.386 7.21592C208.988 6.83326 209.261 6.39593 209.316 5.73994C209.316 5.52127 209.37 5.41194 209.37 5.41194C209.425 5.41194 209.48 5.35727 209.534 5.35727C209.589 5.35727 209.644 5.35727 209.644 5.41194C209.698 5.46661 209.698 5.52127 209.698 5.6306C209.698 6.23193 209.425 6.72393 208.933 7.16125C208.441 7.59858 207.785 7.76258 206.91 7.76258C206.145 7.76258 205.489 7.59858 204.942 7.27059C204.45 6.94259 204.177 6.2866 204.177 5.19328V4.48262C204.177 3.66263 204.505 3.0613 205.216 2.62397C205.708 2.35064 206.309 2.18664 207.02 2.18664C207.84 2.18664 208.496 2.40531 208.933 2.7333C209.37 3.11597 209.644 3.55329 209.644 4.09995V4.91995H206.364V4.97461ZM207.621 4.81061V2.67864C207.621 2.51464 207.566 2.45997 207.457 2.35064C207.348 2.29597 207.238 2.29597 207.074 2.29597C206.91 2.29597 206.746 2.35064 206.637 2.40531C206.528 2.45997 206.418 2.5693 206.418 2.67864V4.81061H207.621Z" fill="white"/>
<path fill-rule="evenodd" clip-rule="evenodd" d="M214.728 2.78785C214.838 2.78785 214.947 2.73318 215.056 2.73318C215.166 2.73318 215.275 2.73318 215.33 2.73318C215.658 2.73318 215.931 2.78785 216.15 2.89718C216.368 3.00651 216.478 3.11585 216.478 3.27984C216.478 3.44384 216.368 3.55317 216.15 3.66251C215.931 3.77184 215.658 3.82651 215.275 3.82651C214.892 3.82651 214.619 3.77184 214.4 3.66251C214.182 3.55317 214.072 3.44384 214.072 3.22518C214.072 2.95185 214.346 2.67852 214.838 2.51452C215.33 2.29586 216.095 2.24119 217.024 2.24119C217.899 2.24119 218.5 2.29586 218.883 2.45985C219.266 2.62385 219.43 2.78785 219.43 3.00651V7.3798C219.43 7.43447 219.484 7.48913 219.539 7.48913C219.594 7.5438 219.648 7.5438 219.758 7.5438C219.976 7.5438 220.14 7.43447 220.359 7.27047C220.414 7.2158 220.468 7.16114 220.523 7.16114L220.687 7.2158C220.687 7.32513 220.523 7.43446 220.14 7.59846C219.758 7.7078 219.375 7.81713 218.883 7.81713C218.446 7.81713 218.118 7.76246 217.899 7.7078C217.68 7.59846 217.462 7.48913 217.352 7.27047C216.97 7.48913 216.696 7.65313 216.423 7.7078C216.15 7.76246 215.822 7.81713 215.439 7.81713C215.002 7.81713 214.619 7.76246 214.4 7.65313C214.182 7.5438 214.018 7.43447 214.018 7.27047V5.30249C214.018 5.08382 214.127 4.91983 214.346 4.86516C214.564 4.75583 215.166 4.6465 216.204 4.4825C216.642 4.42783 217.024 4.3185 217.352 4.26383V2.78785C217.352 2.62385 217.243 2.51452 217.079 2.45985C216.915 2.35052 216.642 2.35052 216.368 2.35052C215.603 2.29586 215.056 2.45985 214.728 2.78785ZM217.298 4.42783C216.806 4.53716 216.478 4.59183 216.314 4.70116C216.15 4.81049 216.095 4.91983 216.095 5.08382V7.2158C216.095 7.27047 216.15 7.32513 216.204 7.3798C216.259 7.43447 216.314 7.43447 216.423 7.43447C216.532 7.43447 216.696 7.3798 216.86 7.27047C217.188 7.0518 217.352 6.77847 217.352 6.50514V4.42783H217.298ZM225.388 7.32513C225.224 7.3798 225.06 7.48913 224.841 7.59846C224.677 7.7078 224.568 7.76246 224.513 7.76246C224.459 7.76246 224.459 7.76246 224.404 7.76246C224.404 7.76246 224.349 7.76246 224.349 7.7078V5.30249C224.349 5.30249 224.349 5.24782 224.404 5.24782C224.404 5.24782 224.459 5.24782 224.513 5.24782C224.568 5.24782 224.623 5.24782 224.623 5.24782C224.623 5.24782 224.677 5.30249 224.677 5.41182C224.787 6.06781 225.06 6.61447 225.443 7.0518C225.716 7.3798 226.099 7.5438 226.481 7.5438C226.7 7.5438 226.864 7.48913 227.028 7.43447C227.192 7.32513 227.301 7.2158 227.301 7.0518C227.301 6.8878 227.192 6.61447 227.028 6.39581C226.864 6.12248 226.427 5.68515 225.88 5.13849C225.279 4.59183 224.896 4.1545 224.732 3.93584C224.568 3.66251 224.459 3.44384 224.459 3.27984C224.459 2.95185 224.677 2.73318 225.06 2.51452C225.443 2.29586 225.935 2.24119 226.427 2.24119C226.919 2.24119 227.356 2.35052 227.793 2.51452C227.903 2.45985 228.067 2.40519 228.34 2.29586C228.504 2.18652 228.613 2.18652 228.668 2.18652C228.723 2.18652 228.723 2.18652 228.723 2.18652L228.777 2.24119V4.37317C228.777 4.37317 228.777 4.42783 228.723 4.42783C228.668 4.42783 228.668 4.42783 228.613 4.42783C228.559 4.42783 228.559 4.42783 228.504 4.42783C228.504 4.42783 228.449 4.37317 228.449 4.26383C228.34 3.66251 228.121 3.11585 227.793 2.73318C227.52 2.45985 227.247 2.35052 226.809 2.35052C226.591 2.35052 226.372 2.40519 226.263 2.45985C226.099 2.51452 226.044 2.62385 226.044 2.73318C226.044 3.06118 226.536 3.60784 227.465 4.37317C228.121 4.91983 228.559 5.30249 228.777 5.63049C228.996 5.95848 229.105 6.23181 229.105 6.45048C229.105 6.83314 228.887 7.10647 228.449 7.32513C228.012 7.5438 227.52 7.65313 226.919 7.65313C226.645 7.65313 226.372 7.59846 226.153 7.5438C225.88 7.59846 225.661 7.48913 225.388 7.32513ZM233.479 2.35052H232.932C232.877 2.35052 232.823 2.29586 232.823 2.29586C232.823 2.29586 232.877 2.24119 232.932 2.24119H236.103C236.157 2.24119 236.157 2.24119 236.212 2.24119C236.267 2.24119 236.267 2.29586 236.267 2.29586C236.267 2.29586 236.267 2.35052 236.212 2.35052C236.157 2.35052 236.157 2.35052 236.103 2.35052H235.556L236.649 6.23181L237.688 3.17051C237.743 3.06118 237.743 2.95185 237.743 2.84252C237.743 2.67852 237.688 2.51452 237.579 2.45985C237.469 2.40519 237.305 2.35052 237.087 2.35052H236.923L236.868 2.29586C236.868 2.29586 236.868 2.24119 236.923 2.24119C236.923 2.24119 236.977 2.24119 237.032 2.24119H238.836C238.891 2.24119 238.945 2.24119 238.945 2.24119C239 2.24119 239 2.29586 239 2.29586C239 2.29586 239 2.35052 238.945 2.35052C238.945 2.35052 238.891 2.35052 238.836 2.35052C238.727 2.35052 238.617 2.40519 238.563 2.45985C238.344 2.62385 238.18 2.84252 238.125 3.06118L236.376 8.36379C236.267 8.74645 235.993 9.01978 235.556 9.23844C235.173 9.45711 234.736 9.51178 234.299 9.51178C233.971 9.51178 233.643 9.45711 233.369 9.34778C233.096 9.23845 232.987 9.07445 232.987 8.85578C232.987 8.69178 233.096 8.52779 233.315 8.47312C233.533 8.36379 233.752 8.30912 234.025 8.30912C234.299 8.30912 234.517 8.36379 234.736 8.41845C234.955 8.52779 235.009 8.63712 235.009 8.74645C235.009 8.96512 234.791 9.07445 234.408 9.23844C234.299 9.29311 234.244 9.29311 234.244 9.34778C234.244 9.34778 234.244 9.40244 234.299 9.40244C234.353 9.40244 234.408 9.40244 234.517 9.40244C234.791 9.40244 235.119 9.34778 235.392 9.18378C235.775 9.01978 236.048 8.69178 236.212 8.25446L236.485 7.65313H235.228L233.479 2.35052Z" fill="white"/>
<path fill-rule="evenodd" clip-rule="evenodd" d="M4.48262 91.511V18.8052H0.655993C0.218664 18.5318 0 18.3678 0 18.1492C0 17.9852 0.218664 17.7665 0.655993 17.5478H17.7665C23.0144 17.5478 27.333 19.1331 30.6677 22.2491C34.0023 25.4197 35.6969 29.793 35.6969 35.4783C35.6969 38.9223 35.0956 41.9289 33.9476 44.4435C32.7996 46.9582 31.0503 49.0901 28.645 50.7848C27.1144 51.8781 24.8731 52.8621 21.8118 53.8461C24.9824 54.8301 27.333 55.8687 28.809 56.9074C31.2143 58.602 33.0183 60.6794 34.2756 63.0847C35.5329 65.49 36.1343 68.4966 36.1343 71.9952C36.1343 76.5872 35.2049 80.6325 33.401 84.1858C32.1436 86.6457 30.121 88.723 27.2784 90.363C24.4357 92.003 21.0464 92.823 17.1105 92.823H0.655993C0.218664 92.6043 0 92.3857 0 92.167C0 91.9483 0.218664 91.7297 0.655993 91.511H4.48262ZM16.4545 18.8052V53.2448H19.5158C20.9371 53.2448 21.9758 52.9168 22.6317 52.3154C23.2877 51.7141 23.6157 50.7301 23.6157 49.3088V23.1784C23.6157 21.4838 23.2877 20.2811 22.5771 19.6798C21.8664 19.0785 20.4998 18.7505 18.5318 18.7505H16.4545V18.8052ZM16.4545 54.5568V91.5657H18.3131C19.9531 91.5657 21.2104 91.1283 22.1944 90.363C23.1784 89.543 23.6157 88.4497 23.6157 87.0831V58.0007C23.6157 56.7434 23.3424 55.8687 22.7957 55.3767C22.2491 54.8301 21.3744 54.5568 20.1718 54.5568H16.4545ZM42.4755 40.3982H40.2342C40.0156 40.3982 39.7969 40.3436 39.6876 40.2342C39.5236 40.1249 39.4689 39.9609 39.4689 39.7969C39.4689 39.5783 39.5236 39.4143 39.6876 39.3049C39.8516 39.1956 40.0156 39.1409 40.2342 39.1409H52.8621V91.5657H55.3767C55.5954 91.5657 55.814 91.6203 55.9234 91.7297C56.0327 91.839 56.142 92.003 56.142 92.2763C56.142 92.4403 56.0874 92.6043 55.9234 92.7137C55.7594 92.823 55.5954 92.8777 55.3767 92.8777H40.2342C39.8516 92.659 39.6329 92.4403 39.6329 92.2217C39.6329 92.003 39.8516 91.7843 40.2342 91.5657H42.4755V40.3982ZM60.4607 69.6446V59.8047C60.4607 51.9874 61.9913 46.1928 65.0526 42.5302C67.2939 39.7969 70.1912 38.4849 73.6352 38.4849C78.0085 38.4849 81.3431 40.4529 83.6937 44.4435C86.0444 48.4342 87.1924 53.6821 87.1924 60.242V71.1206C87.1924 79.6485 85.6617 85.7164 82.6551 89.4337C80.4684 92.1123 77.6258 93.4243 74.0178 93.4243C71.9405 93.4243 70.0272 92.987 68.3326 92.003C66.5833 91.0737 65.0526 89.379 63.6313 86.9191C62.2646 84.5138 61.3353 81.2338 61.0073 77.1885C60.6247 73.2525 60.4607 70.6832 60.4607 69.6446ZM76.8058 44.9902C76.8058 43.1315 76.4778 41.8196 75.8765 41.0542C75.2205 40.2889 74.5098 39.9062 73.6352 39.9062C72.9245 39.9062 72.2139 40.2342 71.6672 40.8356C71.0659 41.4369 70.7925 42.3662 70.7925 43.6782V85.7164C70.7925 88.3404 71.1752 90.1444 71.8312 91.0737C72.3779 91.7843 73.0885 92.0577 74.0178 92.0577C74.8925 92.0577 75.6031 91.7843 76.0951 91.183C76.5871 90.5817 76.8058 89.3244 76.8058 87.411V44.9902ZM94.4083 91.4563V18.7505H90.7457C90.4723 18.7505 90.2537 18.6958 90.1443 18.5865C89.9803 18.4772 89.9257 18.3132 89.9257 18.0945C89.9257 17.9305 89.9803 17.7665 90.1443 17.6572C90.3083 17.5478 90.4723 17.4932 90.7457 17.4932H105.779C110.371 17.4932 114.143 18.3678 117.04 20.1718C119.937 21.9758 122.069 24.8731 123.436 28.809C125.24 34.1116 126.115 39.7422 126.115 45.7555V64.342C126.115 70.5739 125.24 76.2045 123.491 81.2338C122.507 84.0764 121.195 86.3177 119.664 87.8484C118.133 89.4337 116.22 90.6364 114.033 91.4563C111.792 92.2763 109.059 92.7137 105.779 92.7137H90.7457C90.4723 92.7137 90.2537 92.659 90.1443 92.5497C89.9803 92.4403 89.9257 92.2763 89.9257 92.0577C89.9257 91.839 89.9803 91.6203 90.1443 91.511C90.3083 91.4017 90.4723 91.347 90.7457 91.347H94.4083V91.4563ZM106.435 91.4563H107.747C110.152 91.4563 111.683 91.0737 112.393 90.363C113.104 89.6524 113.487 87.7937 113.487 84.8418V24.3264C113.487 22.1398 113.104 20.6638 112.393 19.8985C111.683 19.1331 110.589 18.7505 109.113 18.7505H106.38V91.4563H106.435ZM140.601 66.146V84.7871C140.601 87.6844 140.984 89.5977 141.749 90.527C142.35 91.2377 143.28 91.5657 144.592 91.5657C146.778 91.5657 148.692 90.527 150.386 88.395C153.174 84.8418 154.705 80.0311 154.924 73.9085C154.978 71.8859 155.088 70.7926 155.252 70.5192C155.416 70.2459 155.689 70.1366 155.962 70.1366C156.236 70.1366 156.454 70.2459 156.618 70.4099C156.837 70.6832 156.892 71.3392 156.892 72.3232C156.892 78.2272 155.689 83.2564 153.284 87.3017C150.878 91.347 147.598 93.3697 143.498 93.3697C139.672 93.3697 136.501 91.839 133.986 88.6684C131.472 85.5524 130.215 78.7738 130.215 68.3873V61.062C130.215 53.0808 131.909 47.0128 135.353 42.8582C137.813 39.9062 140.71 38.4303 144.154 38.4303C148.254 38.4303 151.425 40.3436 153.666 44.0609C155.908 47.8328 157.001 52.4248 157.001 57.8367V66.0366H140.601V66.146ZM146.614 64.7793V43.4595C146.614 42.0929 146.341 41.0542 145.685 40.3436C145.248 39.8516 144.646 39.5783 143.772 39.5783C142.897 39.5783 142.186 39.9062 141.53 40.5076C140.874 41.1636 140.601 42.0929 140.601 43.4049V64.7246H146.614V64.7793ZM163.725 40.3982H161.265C161.046 40.3982 160.828 40.3436 160.718 40.2342C160.554 40.1249 160.5 39.9609 160.5 39.7969C160.5 39.5783 160.554 39.4143 160.718 39.3049C160.882 39.1956 161.046 39.1409 161.265 39.1409H173.947V45.7555C175.259 42.7489 176.462 40.7809 177.61 39.9062C178.758 39.0316 179.961 38.5396 181.218 38.5396C182.967 38.5396 184.553 39.3049 185.919 40.7809C187.723 42.6942 188.598 45.1542 188.598 48.1062C188.598 50.6208 187.997 52.4794 186.794 53.7914C185.646 55.1034 184.334 55.7047 182.913 55.7047C181.765 55.7047 180.781 55.2674 180.015 54.3928C178.977 53.2448 178.43 51.5501 178.43 49.3635C178.43 47.2315 179.141 45.1542 180.617 43.1862C181.382 42.2022 181.71 41.4916 181.71 41.1089C181.71 40.7809 181.546 40.5622 181.327 40.3436C181.054 40.1249 180.726 40.0156 180.343 40.0156C179.633 40.0156 178.922 40.3436 178.266 40.9449C177.173 41.9289 176.134 43.7329 175.259 46.3568C174.385 48.9808 173.947 51.9328 173.947 55.2674V91.4563H176.899C177.173 91.4563 177.391 91.511 177.555 91.675C177.719 91.7843 177.774 91.9483 177.774 92.1123L177.61 92.5497C177.391 92.7137 177.173 92.7683 176.899 92.7683H161.265C161.046 92.7683 160.882 92.7137 160.773 92.6043C160.609 92.495 160.554 92.331 160.554 92.1123C160.554 91.8937 160.609 91.7297 160.773 91.6203C160.937 91.511 161.046 91.4563 161.265 91.4563H163.725V40.3982ZM203.74 91.511L205.107 91.6203C205.326 91.7297 205.38 91.8937 205.38 92.167C205.38 92.3857 205.162 92.6043 204.779 92.823H191.003C190.621 92.6043 190.457 92.3857 190.457 92.167C190.457 91.9483 190.675 91.7297 191.003 91.511H193.245V40.3982H191.003C190.621 40.1796 190.457 39.9609 190.457 39.7969C190.457 39.5783 190.675 39.3596 191.003 39.0863H203.686V43.0769C205.052 41.2729 206.364 40.0702 207.512 39.4143C208.66 38.7583 210.191 38.4303 212.104 38.4303C214.236 38.4303 215.876 38.8129 216.915 39.5783C218.008 40.3436 218.938 41.7649 219.703 43.8422C220.96 41.7649 222.163 40.3436 223.311 39.5783C224.459 38.8676 226.044 38.4849 228.067 38.4849C230.8 38.4849 232.823 39.0316 234.135 40.1796C235.447 41.3276 236.103 42.9129 236.103 44.9902V91.5657H238.016C238.235 91.5657 238.453 91.6203 238.617 91.7297C238.781 91.839 238.836 92.003 238.836 92.2217L238.672 92.659C238.508 92.823 238.289 92.8777 238.016 92.8777H224.513C224.131 92.659 223.912 92.4403 223.912 92.2217C223.912 92.003 224.131 91.7843 224.513 91.5657H225.771V43.1315C225.771 42.5849 225.607 42.0929 225.279 41.7649C224.951 41.4369 224.568 41.2729 224.185 41.2729C223.311 41.2729 222.491 41.8196 221.671 42.9129C220.359 44.7169 219.703 47.1768 219.703 50.3475V91.5657H221.015L221.343 91.7297C221.452 91.839 221.507 92.003 221.507 92.2217C221.507 92.4403 221.343 92.659 221.015 92.8777H207.95C207.622 92.659 207.458 92.4403 207.458 92.2217C207.458 92.003 207.622 91.7843 207.95 91.5657H209.535V43.8969C209.535 42.9676 209.371 42.3662 208.988 41.9836C208.66 41.6009 208.223 41.3822 207.786 41.3822C207.02 41.3822 206.31 41.8196 205.599 42.6396C204.287 44.3889 203.631 46.2475 203.631 48.3248V91.511H203.74Z" fill="white"/>
<path fill-rule="evenodd" clip-rule="evenodd" d="M4.48257 71.23L16.3998 71.2846V79.0472L4.48257 78.9926V71.23ZM23.6157 71.2846L36.1342 71.3393C36.2436 74.8379 35.8609 77.4072 35.3142 79.1019L23.6157 79.0472V71.2846ZM42.4755 71.394L52.8074 71.4486V79.2112L42.4755 79.1566V71.394ZM60.5153 71.394L70.7925 71.4486V79.2659L61.2259 79.2112C60.7886 76.3686 60.6246 74.0726 60.5153 71.394ZM76.8058 71.4486L87.1923 71.5033C87.1376 74.1819 87.1376 75.9859 86.6457 79.3206L76.8604 79.2659V71.4486H76.8058ZM94.4082 71.5033L106.435 71.558V79.3752L94.4082 79.3206V71.5033ZM113.487 71.558L125.677 71.6126C125.349 74.4006 124.967 76.7513 124.092 79.4299L113.487 79.3752V71.558ZM130.215 71.6126L140.601 71.6673V79.4845L130.816 79.4299C130.379 76.4233 130.324 74.2366 130.215 71.6126ZM155.033 71.722H156.892C157.001 74.3459 156.782 76.9152 156.236 79.5392H154.322C154.869 76.8059 154.814 73.4713 155.033 71.722ZM163.725 71.722L173.947 71.7766V79.5939L163.725 79.5392V71.722ZM193.299 71.8313L203.686 71.886V79.7032L193.299 79.6485V71.8313ZM209.59 71.886L219.812 71.9406V79.7579L209.59 79.7032V71.886ZM225.825 71.9406L236.157 71.9953V79.8125L225.825 79.7579V71.9406Z" fill="#009240"/>
<path fill-rule="evenodd" clip-rule="evenodd" d="M47.7781 36.9001H45.0448C45.9742 35.8068 45.7008 33.7295 44.1155 32.8001C42.8035 32.1441 41.3276 30.9415 40.8902 30.1215C40.3982 29.4108 40.3982 28.3175 41.1089 28.1535C40.3982 27.4975 39.9609 26.1309 41.1089 25.8029C40.5622 24.5456 40.6169 22.9056 42.1475 22.5229C42.4755 20.9376 43.1315 19.8443 44.3888 20.0629C45.0448 18.915 46.1382 18.3136 46.6848 19.0243C47.2862 18.095 47.9421 17.5483 48.4888 18.0403C49.2541 17.4936 50.0741 16.7283 51.1128 16.947C51.7141 17.7123 51.6594 18.5323 51.7688 19.3523C52.7528 19.407 52.5888 20.3363 52.3701 21.1016C52.9714 21.2656 53.3541 21.7029 52.6981 23.0149C53.2994 23.2336 53.4634 23.8349 52.8621 25.0376C53.6821 25.5296 53.0261 26.4589 51.7688 27.5522C52.4248 28.0989 52.0421 29.3562 49.2541 30.1215C49.9101 30.8322 49.3088 31.0508 48.3795 31.4882C46.6848 32.4175 46.1382 34.3308 46.4662 35.1508C46.7942 36.2441 47.2862 36.5721 47.7781 36.9001Z" fill="#009240"/>
</svg>
